<svg version="1.1" id="Layer_1" xmlns="http://www.w3.org/2000/svg" xmlns:xlink="http://www.w3.org/1999/xlink" x="0px" y="0px"
	 width="100%" viewBox="0 0 500 500" enable-background="new 0 0 500 500" xml:space="preserve">
<path fill="#000000" opacity="1.000000" stroke="none" 
	d="
M295.000000,501.000000 
	C196.666687,501.000000 98.833382,501.000000 1.000052,501.000000 
	C1.000035,334.333405 1.000035,167.666794 1.000018,1.000142 
	C167.666565,1.000095 334.333130,1.000095 500.999756,1.000047 
	C500.999847,167.666519 500.999847,334.333038 500.999939,500.999786 
	C432.500000,501.000000 364.000000,501.000000 295.000000,501.000000 
M418.913086,238.469284 
	C418.607452,238.287064 418.301788,238.104843 417.990265,238.005341 
	C417.990265,238.005341 418.072968,238.011627 417.914612,237.445511 
	C417.601776,237.215073 417.288910,236.984634 416.985779,236.494812 
	C416.985779,236.494812 416.852417,236.272095 416.930817,235.655258 
	C416.625244,235.413773 416.319672,235.172287 416.002563,234.995804 
	C416.002563,234.995804 416.068604,234.996475 415.932129,234.458054 
	C415.622864,234.277634 415.313599,234.097229 415.006439,233.997513 
	C415.006439,233.997513 415.087128,233.995163 415.018250,233.327667 
	C414.358215,232.521484 413.698181,231.715317 413.018250,230.978775 
	C413.018250,230.978775 413.088196,230.997589 412.943542,230.452179 
	C412.628387,230.271530 412.313263,230.090866 412.000641,230.001587 
	C412.000641,230.001587 412.092010,229.999191 411.944397,229.455215 
	C411.630005,229.273926 411.315582,229.092651 411.019318,228.991486 
	C411.019318,228.991486 411.099243,228.972626 411.012299,228.278015 
	C410.349426,227.820389 409.686523,227.362778 409.016754,226.972565 
	C409.016754,226.972565 409.077393,226.942383 408.760864,226.281113 
	C406.856903,227.138718 404.952972,227.996323 402.893433,228.388489 
	C402.690887,228.095398 402.411499,227.945908 402.004303,227.996811 
	C402.004303,227.996811 402.066467,227.952866 401.610931,227.204834 
	C395.835449,227.137344 390.055298,226.923325 384.287720,227.105804 
	C382.853241,227.151169 381.459320,228.478058 380.046753,229.215897 
	C381.465851,230.470093 382.791962,232.652634 384.321350,232.805847 
	C389.064148,233.280960 393.900574,233.207535 398.664856,232.858292 
	C400.184570,232.746872 401.592377,231.108887 403.817047,230.471558 
	C403.551086,233.582336 403.285095,236.693130 402.982300,239.077560 
	C401.944031,238.584167 400.906616,237.667526 399.867310,237.665390 
	C392.596771,237.650421 385.325836,237.824493 378.048492,238.006073 
	C378.048492,238.006073 378.096130,237.957077 378.011047,237.213745 
	C377.350037,235.782822 376.689026,234.351883 376.020142,232.988586 
	C376.020142,232.988586 376.088196,232.986877 376.011292,232.244568 
	C374.679840,231.131760 373.348389,230.018936 372.003937,228.991302 
	C372.003937,228.991302 372.089172,229.003983 371.928558,228.465134 
	C371.615417,228.281174 371.302246,228.097198 371.001953,227.989761 
	C371.001953,227.989761 371.078400,227.976517 370.681488,227.266373 
	C365.124542,226.836807 359.572296,226.295853 354.007111,226.061478 
	C352.727386,226.007599 351.403320,227.006287 350.099670,227.520584 
	C350.722198,229.031693 351.344757,230.542786 352.000793,232.004501 
	C352.000793,232.004501 351.948883,232.033676 352.382660,232.792862 
	C357.600555,232.901413 362.818481,233.009964 368.019409,232.986191 
	C368.019409,232.986191 367.886993,233.002213 368.036377,233.466400 
	C368.201416,233.823273 368.471344,233.942902 369.500824,234.050430 
	C370.056213,234.762711 370.611572,235.474976 371.044800,236.955429 
	C371.333588,239.308731 371.622375,241.662048 372.012451,244.012558 
	C372.012451,244.012558 372.010406,243.911255 371.476624,244.081390 
	C371.289062,244.391891 371.101532,244.702393 371.000916,245.006760 
	C371.000916,245.006760 370.995026,244.919785 370.418060,245.120377 
	C369.918427,245.744370 369.418793,246.368347 369.002075,246.995682 
	C369.002075,246.995682 369.005188,246.912750 368.463654,247.064240 
	C368.280640,247.377197 368.097595,247.690140 368.009644,248.021011 
	C368.009644,248.021011 368.028503,247.926086 367.122742,247.988037 
	C362.485168,247.998016 357.828430,247.783508 353.223663,248.177292 
	C352.085205,248.274643 350.627716,250.209030 350.243896,251.561966 
	C349.997192,252.431580 351.444275,254.760971 352.132111,254.760941 
	C357.448029,254.760696 362.763977,254.351532 368.798096,253.991058 
	C370.986359,252.056351 373.323639,250.261383 375.313293,248.140350 
	C376.766113,246.591614 377.761139,244.613449 379.810974,242.989395 
	C381.695251,243.326035 383.567261,243.826660 385.466095,243.969147 
	C391.623016,244.431152 397.789764,244.761826 403.718384,245.804352 
	C403.822601,247.675629 403.497040,249.720474 404.161438,251.365509 
	C404.735596,252.787277 406.269318,254.172089 407.708191,254.742523 
	C408.401459,255.017380 410.765503,253.418015 410.800079,252.600815 
	C410.934814,249.415024 410.440247,246.202606 410.194702,242.347565 
	C413.719208,240.201111 414.964905,243.576263 416.587555,245.272354 
	C418.675507,247.454895 419.981415,250.403717 422.130219,252.505051 
	C424.363739,254.689240 427.026062,255.624741 427.960083,250.222305 
	C427.918121,247.816574 427.876160,245.410858 427.979187,242.365250 
	C428.024902,241.931015 428.070648,241.496780 428.805908,240.646179 
	C428.860443,239.673492 428.726776,238.641388 429.011017,237.741226 
	C429.513733,236.149109 430.286499,233.318283 430.918518,233.325836 
	C433.334808,233.354691 435.740082,234.307541 438.027405,235.863037 
	C438.350220,241.917816 438.673035,247.972580 439.005798,253.994156 
	C439.005798,253.994156 438.972748,254.004532 439.284180,254.642914 
	C440.536743,254.431244 441.789337,254.219574 442.993683,253.994553 
	C442.993683,253.994553 443.006958,254.042801 443.751678,253.592316 
	C443.883820,248.735809 444.015930,243.879318 444.797089,238.644608 
	C444.922028,235.647308 445.604919,233.388412 449.309875,232.847717 
	C451.474762,232.531769 454.296875,231.438370 451.962616,227.478714 
	C451.639008,227.289429 451.315369,227.100143 451.015778,226.983444 
	C451.015778,226.983444 451.088043,226.958572 450.800079,226.340530 
	C450.133392,223.494156 449.466705,220.647781 448.705292,217.397034 
	C445.796814,216.976227 445.046600,218.031525 444.954041,224.564728 
	C444.859436,224.711487 444.764832,224.858246 444.103241,224.964539 
	C443.704895,225.279297 443.306549,225.594055 442.086060,226.025986 
	C440.200500,226.352386 438.326111,226.810760 436.426544,226.972137 
	C434.000214,227.178268 431.553497,227.144669 428.303955,227.032074 
	C422.890503,225.055313 422.024231,225.661545 421.990387,231.445251 
	C421.969940,234.936661 421.945953,238.428040 421.487000,241.960587 
	C421.487000,241.960587 421.052277,241.902832 421.038971,242.006424 
	C421.038971,242.006424 421.142700,242.018600 421.014740,241.375137 
	C420.685791,240.895889 420.356842,240.416626 420.007385,239.995560 
	C420.007385,239.995560 420.068481,239.987061 419.924164,239.458572 
	C419.617249,239.285736 419.310333,239.112915 418.993835,239.003143 
	C418.993835,239.003143 419.057556,239.000427 418.913086,238.469284 
M282.532745,240.911179 
	C282.368744,240.576080 282.204773,240.240997 282.227692,239.269058 
	C284.236633,236.916702 286.500488,234.724945 288.132172,232.134949 
	C288.808472,231.061462 288.132324,229.135986 288.071228,227.597977 
	C286.671295,227.946533 284.926270,227.890106 283.943207,228.727814 
	C281.886932,230.480072 280.232361,232.703735 278.251373,234.913879 
	C275.500305,232.563568 272.768829,230.229996 269.706573,227.269119 
	C266.336487,228.756409 262.942322,231.279877 259.700775,227.030060 
	C259.637299,226.946854 259.378845,226.992126 259.214600,227.008896 
	C252.744736,227.669830 245.963669,225.307861 239.791122,229.032593 
	C239.260818,229.352585 238.224060,229.458206 237.750549,229.153595 
	C230.823822,224.697464 223.359055,228.084549 215.179626,226.808472 
	C219.017334,237.174927 227.570389,230.615494 232.884155,233.731628 
	C233.491165,236.617783 232.450394,238.221634 228.995132,238.011475 
	C226.506668,237.860123 223.966583,238.247711 221.511841,237.923279 
	C217.701172,237.419647 216.256790,239.151962 215.643448,242.638504 
	C215.433868,243.829788 213.954132,244.797607 213.006653,245.543457 
	C213.006653,245.543457 212.843597,245.259293 212.899994,244.507202 
	C211.582886,242.255264 210.265778,240.003326 208.962265,237.493759 
	C208.962265,237.493759 208.839951,237.266617 208.947144,236.593582 
	C208.612091,236.306274 208.277054,236.018967 207.956940,235.515625 
	C207.956940,235.515625 207.819550,235.348251 207.898636,234.661652 
	C207.578445,234.345810 207.258255,234.029984 206.970795,233.484848 
	C206.970795,233.484848 206.846146,233.289627 206.924896,232.613174 
	C206.600906,232.309692 206.276901,232.006210 205.983414,231.504074 
	C205.983414,231.504074 205.857651,231.347321 205.933105,230.706451 
	C205.626724,230.444336 205.320343,230.182220 205.001663,229.992874 
	C205.001663,229.992874 205.074463,230.004944 204.949829,229.475754 
	C204.653656,229.288666 204.357483,229.101578 203.766006,228.269852 
	C202.366516,228.165024 200.320328,227.428406 199.689270,228.074326 
	C197.824951,229.982574 196.309814,232.325317 195.042007,234.702789 
	C192.687393,239.118362 190.604767,243.678955 188.408920,248.179184 
	C187.192154,247.147034 187.009689,246.421936 187.006592,245.696075 
	C186.986740,241.047836 187.343369,236.362274 186.837357,231.770401 
	C186.650116,230.071213 184.724106,227.650162 183.136368,227.214157 
	C180.088165,226.377075 179.960861,229.088409 179.997620,231.362152 
	C180.026535,233.151062 180.003418,234.940796 180.003418,237.847214 
	C175.922592,237.536438 172.381256,237.266739 168.971771,236.124496 
	C168.659866,233.397705 168.347961,230.670898 168.008011,227.998947 
	C168.008011,227.998947 168.064758,227.975021 168.028061,227.306335 
	C170.393417,225.251740 172.231857,222.850845 170.197342,219.764206 
	C169.279831,218.372192 167.392776,217.619232 165.945618,216.576324 
	C165.750076,221.053268 169.500092,224.811554 163.370834,227.144592 
	C163.147476,227.278519 163.048889,227.475037 162.317581,228.245605 
	C162.219162,234.041779 162.005386,239.839371 162.076035,245.633484 
	C162.106613,248.143829 162.723480,250.647003 163.085968,253.906784 
	C166.839920,256.323059 168.385452,254.196365 168.902969,250.829605 
	C169.237610,248.652664 168.965897,246.382523 168.965897,244.368530 
	C173.135025,244.368530 176.512939,244.368530 179.715500,244.368530 
	C180.774918,248.150970 178.091339,252.777100 182.912262,254.710663 
	C183.759293,255.050400 185.566223,252.996887 186.252869,252.519394 
	C187.642899,253.306503 189.135666,254.815582 190.559021,254.752701 
	C191.747665,254.700211 193.272354,253.008743 193.911438,251.686874 
	C195.242416,248.933929 196.085693,245.945175 197.771439,242.764816 
	C201.444260,237.312195 201.443924,237.312378 204.695145,243.154388 
	C204.853531,243.438950 205.026871,243.715210 205.168457,244.607361 
	C205.729630,245.394180 206.290802,246.181015 206.981445,247.716949 
	C208.734222,250.113358 210.325272,252.670105 212.392334,254.754883 
	C212.754410,255.120056 215.115448,253.503235 215.976151,253.083344 
	C218.174118,253.838470 220.273911,254.559891 223.198944,255.564819 
	C223.198944,250.955246 223.198944,247.551224 223.198944,244.807938 
	C229.162659,243.784348 234.520309,242.864777 239.024216,242.091751 
	C240.195145,238.528671 241.050018,235.927368 241.873901,233.420319 
	C246.975952,233.420319 252.283844,233.420319 257.771698,233.420319 
	C258.990997,238.119308 255.008865,237.668839 252.562149,237.897461 
	C240.789948,238.997467 240.932755,238.895386 240.937424,250.123047 
	C240.939270,254.562042 242.617508,255.717453 247.115509,254.387009 
	C247.115509,251.011154 247.115509,247.609848 247.115509,243.993393 
	C249.627655,243.993393 251.606354,244.001953 253.584961,243.991852 
	C260.916168,243.954422 263.128723,242.067154 265.109192,234.772690 
	C265.398773,233.706177 266.982666,232.991089 268.146454,232.653107 
	C268.488312,233.096832 268.830200,233.540543 269.151459,234.585602 
	C269.754333,235.092911 270.357239,235.600220 271.211243,236.722198 
	C272.482635,238.214584 273.754059,239.706970 275.012756,242.034653 
	C274.708862,244.274277 273.824402,246.635178 274.259979,248.720337 
	C274.720673,250.925827 276.069397,254.216736 277.680206,254.657349 
	C281.518433,255.707260 280.933929,252.159943 280.966949,249.780106 
	C280.999146,247.460480 280.880463,245.138763 280.955292,242.558868 
	C280.955292,242.558868 280.928833,242.271423 281.451874,241.979156 
	C281.656128,241.651962 281.860382,241.324768 282.004272,240.991791 
	C282.004272,240.991791 282.018921,241.050674 282.532745,240.911179 
M312.004242,251.991074 
	C312.004242,251.991074 311.929199,251.999878 312.146210,252.573090 
	C312.524261,252.654160 312.902344,252.735245 313.527863,252.961884 
	C313.527863,252.961884 313.814270,252.942062 314.129944,253.546417 
	C314.771881,253.630493 315.413849,253.714569 316.473175,253.952011 
	C316.473175,253.952011 316.914307,254.008255 317.314240,254.689240 
	C319.275085,254.441330 321.235901,254.193420 323.517548,253.948486 
	C323.517548,253.948486 323.806122,253.808289 324.501251,253.941467 
	C325.052826,253.614960 325.604431,253.288437 326.509827,252.943192 
	C326.509827,252.943192 326.831421,252.794434 327.407166,252.879974 
	C327.630432,252.584442 327.853729,252.288925 327.999329,251.994141 
	C327.999329,251.994141 327.999847,252.071869 328.707001,251.997314 
	C329.841095,250.671631 330.975189,249.345963 332.013000,248.002243 
	C332.013000,248.002243 331.995331,248.098557 332.493958,247.953003 
	C332.607452,247.659653 332.720947,247.366302 332.976929,246.238297 
	C334.939667,238.473328 331.254089,229.007446 325.553467,227.172318 
	C319.334106,225.170212 309.729065,229.168213 306.435028,235.130127 
	C304.301636,238.991440 306.603058,247.496231 311.476105,251.981979 
	C311.655212,252.010010 311.834351,252.038055 312.004242,251.991074 
M106.001404,242.000687 
	C106.001404,242.000687 106.028427,242.051178 106.673538,241.798218 
	C107.137421,240.533463 107.601311,239.268692 108.003624,237.998901 
	C108.003624,237.998901 108.019424,238.058609 108.701500,237.756638 
	C109.803978,234.253784 111.713905,230.783493 111.856697,227.241943 
	C112.275925,216.844025 112.103172,206.415146 111.853592,196.005783 
	C111.820137,194.610443 110.009567,193.257690 109.018219,191.956482 
	C109.018219,191.956482 109.089577,191.957687 108.913231,191.450241 
	C108.567535,191.623642 108.221832,191.797028 107.524963,192.021317 
	C107.524963,192.021317 107.201775,192.167831 106.310982,192.021545 
	C103.180679,192.673782 100.050377,193.326035 96.998665,193.990250 
	C96.998665,193.990250 97.010269,193.911606 96.262512,193.978134 
	C94.563385,195.192627 92.864250,196.407104 90.379631,197.966385 
	C85.692299,198.811813 81.276596,198.470932 76.915405,196.118271 
	C74.140724,194.621445 70.924599,193.869217 67.834656,193.055695 
	C65.667320,192.485107 63.378937,192.374313 60.925163,191.608612 
	C60.608589,191.741760 60.292015,191.874908 60.014019,192.016556 
	C60.014019,192.016556 60.011505,191.977127 59.240662,192.393036 
	C59.210964,205.219879 59.181271,218.046722 59.105530,231.637329 
	C59.523960,232.669083 60.021740,233.676361 60.348755,234.736313 
	C64.410027,247.899673 80.644218,256.623444 95.781448,249.961487 
	C96.874199,249.320328 97.966949,248.679169 99.003288,248.009857 
	C99.003288,248.009857 99.025017,248.069046 99.719719,248.022339 
	C101.496758,246.358292 103.273796,244.694244 105.001938,243.001114 
	C105.001938,243.001114 105.012093,243.057098 105.549934,242.937027 
	C105.719322,242.627579 105.888710,242.318115 106.001404,242.000687 
M417.432831,271.113312 
	C418.806519,270.949036 420.180237,270.784760 421.903625,270.578644 
	C421.903625,268.754181 422.419922,266.804688 421.763123,265.406189 
	C421.060486,263.910156 419.252106,262.933441 417.926331,261.730072 
	C417.288483,263.221252 416.358093,264.662109 416.090576,266.217010 
	C415.791138,267.957458 416.092224,269.801208 416.151245,272.253876 
	C412.172485,276.239197 408.193726,280.224518 404.214966,284.209808 
	C404.488678,284.595428 404.762390,284.981018 405.036102,285.366608 
	C406.973633,284.747498 409.311890,284.608978 410.759369,283.402100 
	C413.234497,281.338348 414.957245,278.390839 417.358826,276.214905 
	C419.666595,274.123993 418.414490,272.926575 417.432831,271.113312 
M200.652298,272.893555 
	C200.652298,269.433685 200.652298,265.973846 200.652298,261.302856 
	C198.001236,262.272919 194.757538,262.600342 194.439987,263.741791 
	C193.585907,266.811890 192.922592,270.583954 196.811813,272.926086 
	C198.561447,280.124908 204.557083,285.265869 211.666336,283.277802 
	C207.789841,279.959961 203.913345,276.642120 200.652298,272.893555 
M35.328255,206.477173 
	C35.290047,215.612793 35.251842,224.748428 35.413662,234.636765 
	C38.190075,241.456253 40.965027,248.276352 43.743877,255.094849 
	C44.485203,256.913849 45.638699,258.669800 45.912853,260.555054 
	C46.814453,266.754883 47.278332,273.017517 48.134697,279.225037 
	C49.354431,288.066528 50.676929,296.976654 56.103119,304.427582 
	C60.991886,311.140625 68.463547,310.639587 73.095413,303.646515 
	C77.676155,296.730652 77.592964,288.649811 78.872864,280.910492 
	C79.335236,278.114563 78.653229,274.631653 83.229599,274.730743 
	C91.076866,274.900696 91.422279,275.535461 92.192039,281.416351 
	C93.061722,288.060699 94.419067,294.712524 96.355103,301.122253 
	C97.766747,305.795837 101.320526,308.885071 106.731491,308.908783 
	C112.416229,308.933685 115.340546,304.952209 116.661774,300.557953 
	C119.239449,291.984924 121.043701,283.161499 122.824570,274.372131 
	C124.349876,266.844025 123.599457,258.709717 128.390442,252.080795 
	C133.488495,245.027023 135.292450,237.209167 135.012405,228.664688 
	C134.827026,223.008041 134.826843,217.334030 135.033752,211.678406 
	C135.358276,202.807816 132.403976,198.562241 122.963112,195.494141 
	C122.963112,197.787491 123.057709,199.924850 122.947220,202.051575 
	C122.381874,212.933044 122.542000,223.923706 120.996979,234.667450 
	C118.055290,255.123352 96.123413,266.259491 77.240044,262.360809 
	C60.209061,258.844635 46.938507,242.124451 47.776543,225.012589 
	C48.253647,215.270599 47.862797,205.486130 47.862797,195.074249 
	C41.834499,197.272827 37.470097,199.994583 35.328255,206.477173 
M390.705505,247.925095 
	C387.206665,248.452438 383.707825,248.979782 378.699036,249.734695 
	C380.335052,251.872635 381.421539,254.635056 382.684265,254.718109 
	C389.374207,255.158157 396.108429,254.924789 402.814667,254.924789 
	C402.814667,252.724060 402.814667,251.105698 402.814667,248.715866 
	C398.996796,248.450775 395.317230,248.195282 390.705505,247.925095 
M187.825897,262.208313 
	C185.294342,262.208313 182.762802,262.208313 180.023560,262.208313 
	C180.023560,263.659424 179.972565,264.988617 180.037338,266.312164 
	C180.107651,267.749084 180.285706,269.180756 180.406769,270.505096 
	C188.924500,271.770477 189.750809,270.903168 187.825897,262.208313 
M340.674286,270.500000 
	C342.841553,268.966736 343.202576,267.770020 342.116852,265.367279 
	C340.754944,262.353302 338.592834,261.339935 335.359283,262.718170 
	C335.359283,265.407501 335.359283,267.965424 335.359283,270.961426 
	C337.134766,270.810974 338.559692,270.690216 340.674286,270.500000 
M361.248993,262.317078 
	C360.004639,262.317078 358.760284,262.317078 357.275940,262.317078 
	C357.275940,265.326569 357.275940,267.919495 357.275940,270.799835 
	C359.497162,270.691284 361.403992,270.598114 364.766052,270.433868 
	C363.718903,267.307373 362.862244,264.749695 361.248993,262.317078 
M267.983185,262.189697 
	C267.165405,262.179077 265.865295,261.843201 265.614624,262.214935 
	C264.610809,263.703613 263.291046,265.429749 263.335724,267.033295 
	C263.371918,268.332001 264.996521,269.908630 266.313812,270.703674 
	C266.907379,271.061890 269.401184,269.858704 269.426086,269.293121 
	C269.525909,267.029724 268.995422,264.738495 267.983185,262.189697 
M433.032166,269.607880 
	C432.976868,267.870605 433.230194,266.041168 432.749390,264.430939 
	C432.465149,263.478912 431.120758,262.591400 430.060883,262.212769 
	C429.368988,261.965546 427.603851,262.612640 427.568329,262.979889 
	C427.336548,265.376282 427.238586,267.844879 427.679077,270.180023 
	C427.741577,270.511505 430.963989,270.246918 433.032166,269.607880 
M409.059692,262.236267 
	C407.641235,262.802643 405.483826,263.008179 404.987427,264.024811 
	C404.336243,265.358307 404.651855,267.459656 405.220428,268.980774 
	C405.555420,269.876923 407.153961,270.698242 408.243134,270.781342 
	C409.026764,270.841156 410.614685,269.627167 410.615784,268.979309 
	C410.619415,266.834564 410.066559,264.688873 409.059692,262.236267 
M258.440063,262.867310 
	C256.789581,262.899780 253.801025,262.618530 253.707825,263.016083 
	C253.142502,265.427307 253.237579,267.993408 253.109070,270.567505 
	C255.448822,270.567505 257.013916,270.567505 258.754578,270.567505 
	C258.754578,268.040466 258.754578,265.811829 258.440063,262.867310 
M441.232452,262.020264 
	C435.129852,263.118134 438.989807,267.409576 438.097351,270.539062 
	C440.230316,270.539062 441.881348,270.539062 444.230560,270.539062 
	C443.415131,267.368561 442.730988,264.708496 441.232452,262.020264 
M287.662476,268.505219 
	C286.763184,266.012390 285.863922,263.519562 284.964630,261.026733 
	C284.309814,261.068176 283.654999,261.109650 283.000214,261.151093 
	C282.307831,264.453918 281.615479,267.756744 280.721252,272.022583 
	C284.136292,270.662079 285.954987,269.937531 287.662476,268.505219 
M231.078918,267.287811 
	C232.287689,268.443207 233.496475,269.598602 234.705261,270.753967 
	C235.452042,268.980072 236.632782,267.240479 236.776581,265.418976 
	C236.857834,264.389648 235.359940,262.430389 234.354965,262.271545 
	C231.340988,261.795166 231.010895,264.127960 231.078918,267.287811 
M380.949005,261.679077 
	C377.770782,264.056488 378.130188,267.276642 378.503540,270.356140 
	C380.681061,270.356140 382.518127,270.356140 385.628082,270.356140 
	C384.115082,267.041443 382.821167,264.206787 380.949005,261.679077 
M349.326569,270.909698 
	C351.952240,270.155212 354.029510,264.107727 351.884918,262.972229 
	C350.592804,262.288116 348.337982,263.422333 346.515747,263.739441 
	C347.193207,266.105408 347.870697,268.471344 349.326569,270.909698 
M165.009338,270.345642 
	C166.521713,270.345642 168.034073,270.345642 170.125519,270.345642 
	C169.294189,267.727417 168.817444,265.477844 167.815277,263.493683 
	C167.484695,262.839233 165.797043,262.870178 164.729904,262.587738 
	C164.594330,265.231873 164.458755,267.875977 165.009338,270.345642 
M242.880264,262.491333 
	C242.651886,265.165894 242.423492,267.840454 242.195114,270.515015 
	C242.867325,270.705597 243.539551,270.896179 244.211761,271.086761 
	C245.429047,268.887878 246.646317,266.688995 247.863586,264.490112 
	C246.452988,263.721588 245.042389,262.953064 242.880264,262.491333 
M322.719452,270.059540 
	C323.491699,267.634186 324.263977,265.208862 325.161774,262.389191 
	C322.496460,262.389191 320.512512,262.389191 317.386536,262.389191 
	C319.248047,265.555725 320.727234,268.071899 322.719452,270.059540 
M389.067688,264.127808 
	C389.067688,266.239899 389.067688,268.351990 389.067688,270.960327 
	C391.334442,270.794556 392.993042,270.673279 394.800201,270.541138 
	C393.673096,267.767334 392.916199,265.548431 391.821686,263.510925 
	C391.602081,263.102173 390.097778,263.383606 389.067688,264.127808 
M218.051147,266.997253 
	C218.861679,265.527588 219.672211,264.057892 220.856171,261.911133 
	C218.054474,262.078217 216.300446,262.182831 213.895767,262.326233 
	C214.761627,265.534393 215.474411,268.175415 216.187210,270.816406 
	C216.642014,270.719116 217.096817,270.621796 217.551620,270.524506 
	C217.708099,269.586700 217.864578,268.648926 218.051147,266.997253 
M296.886292,270.799561 
	C295.964630,267.887390 295.042938,264.975189 293.962097,261.560089 
	C290.547791,267.167664 291.511810,270.358734 296.886292,270.799561 
M312.991516,267.276611 
	C313.231384,265.721527 313.471283,264.166443 313.729980,262.489197 
	C311.627502,262.489197 309.972565,262.489197 308.195190,262.489197 
	C309.152985,265.642731 309.966400,268.320862 311.099152,272.050446 
	C311.969055,270.149841 312.454132,269.089996 312.991516,267.276611 
M368.495789,262.744934 
	C369.285370,265.370361 370.074982,267.995789 370.864563,270.621216 
	C371.239410,270.640289 371.614227,270.659363 371.989075,270.678436 
	C372.650452,268.209534 373.311829,265.740662 373.973206,263.271759 
	C372.352081,262.949158 370.730957,262.626556 368.495789,262.744934 
M208.129562,266.252258 
	C207.920486,264.934448 207.711411,263.616608 207.502335,262.298798 
	C206.916199,262.331116 206.330078,262.363434 205.743958,262.395752 
	C205.864197,265.095093 205.984451,267.794434 206.130157,271.065460 
	C208.053055,270.788696 209.439056,270.589203 211.938538,270.229431 
	C210.069717,268.582550 209.177078,267.795898 208.129562,266.252258 
M274.014252,267.327484 
	C274.351898,268.499420 274.689545,269.671326 275.027191,270.843262 
	C275.433350,270.741852 275.839508,270.640442 276.245667,270.539032 
	C276.245667,267.785248 276.245667,265.031464 276.245667,262.277679 
	C275.726868,262.214630 275.208099,262.151581 274.689301,262.088501 
	C274.461456,263.556122 274.233612,265.023743 274.014252,267.327484 
M304.035156,267.234558 
	C303.748016,265.501648 303.460907,263.768738 303.173767,262.035858 
	C302.511292,262.118530 301.848846,262.201172 301.186371,262.283844 
	C301.186371,264.517700 301.075684,266.760956 301.264862,268.978699 
	C301.311676,269.527496 302.331573,269.993317 302.904205,270.497253 
	C303.275635,269.685425 303.647064,268.873596 304.035156,267.234558 
z"/>
<path fill="#632070" opacity="1.000000" stroke="none" 
	d="
M35.970978,205.898743 
	C37.470097,199.994583 41.834499,197.272827 47.862797,195.074249 
	C47.862797,205.486130 48.253647,215.270599 47.776543,225.012589 
	C46.938507,242.124451 60.209061,258.844635 77.240044,262.360809 
	C96.123413,266.259491 118.055290,255.123352 120.996979,234.667450 
	C122.542000,223.923706 122.381874,212.933044 122.947220,202.051575 
	C123.057709,199.924850 122.963112,197.787491 122.963112,195.494141 
	C132.403976,198.562241 135.358276,202.807816 135.033752,211.678406 
	C134.826843,217.334030 134.827026,223.008041 135.012405,228.664688 
	C135.292450,237.209167 133.488495,245.027023 128.390442,252.080795 
	C123.599457,258.709717 124.349876,266.844025 122.824570,274.372131 
	C121.043701,283.161499 119.239449,291.984924 116.661774,300.557953 
	C115.340546,304.952209 112.416229,308.933685 106.731491,308.908783 
	C101.320526,308.885071 97.766747,305.795837 96.355103,301.122253 
	C94.419067,294.712524 93.061722,288.060699 92.192039,281.416351 
	C91.422279,275.535461 91.076866,274.900696 83.229599,274.730743 
	C78.653229,274.631653 79.335236,278.114563 78.872864,280.910492 
	C77.592964,288.649811 77.676155,296.730652 73.095413,303.646515 
	C68.463547,310.639587 60.991886,311.140625 56.103119,304.427582 
	C50.676929,296.976654 49.354431,288.066528 48.134697,279.225037 
	C47.278332,273.017517 46.814453,266.754883 45.912853,260.555054 
	C45.638699,258.669800 44.485203,256.913849 43.743877,255.094849 
	C40.965027,248.276352 38.190075,241.456253 35.496998,233.907318 
	C35.710548,224.084839 35.840763,214.991791 35.970978,205.898743 
z"/>
<path fill="#EFC405" opacity="1.000000" stroke="none" 
	d="
M107.201775,192.167847 
	C107.201775,192.167831 107.524963,192.021317 108.004318,192.002975 
	C108.685646,191.975647 108.887611,191.966675 109.089577,191.957687 
	C109.089577,191.957687 109.018219,191.956482 109.096970,192.340408 
	C109.476410,195.009644 110.097862,197.305298 110.024696,199.578568 
	C109.611488,212.416946 111.602242,225.387451 108.019424,238.058609 
	C108.019424,238.058609 108.003624,237.998901 107.691940,238.099426 
	C106.929642,239.483704 106.479042,240.767441 106.028427,242.051178 
	C106.028427,242.051178 106.001404,242.000687 105.773773,242.083374 
	C105.368126,242.463074 105.190109,242.760086 105.012100,243.057098 
	C105.012093,243.057098 105.001938,243.001114 104.664383,242.981598 
	C102.559547,244.664383 100.792282,246.366714 99.025017,248.069046 
	C99.025017,248.069046 99.003288,248.009857 98.681610,247.973969 
	C97.281395,248.562866 96.202858,249.187653 95.124329,249.812439 
	C80.644218,256.623444 64.410027,247.899673 60.348755,234.736313 
	C60.021740,233.676361 59.523960,232.669083 59.341091,230.917542 
	C59.721603,217.457535 59.866554,204.717331 60.011505,191.977127 
	C60.011505,191.977127 60.014019,192.016556 60.285683,192.056091 
	C60.753101,192.083130 60.948856,192.070648 61.144611,192.058167 
	C63.378937,192.374313 65.667320,192.485107 67.834656,193.055695 
	C70.924599,193.869217 74.140724,194.621445 76.915405,196.118271 
	C81.276596,198.470932 85.692299,198.811813 91.078476,197.772736 
	C93.521637,196.356598 95.265953,195.134094 97.010269,193.911606 
	C97.010269,193.911606 96.998665,193.990250 97.408417,193.993439 
	C100.946037,193.387039 104.073906,192.777435 107.201775,192.167847 
z"/>
<path fill="#E7C11D" opacity="1.000000" stroke="none" 
	d="
M213.054718,245.867523 
	C213.954132,244.797607 215.433868,243.829788 215.643448,242.638504 
	C216.256790,239.151962 217.701172,237.419647 221.511841,237.923279 
	C223.966583,238.247711 226.506668,237.860123 228.995132,238.011475 
	C232.450394,238.221634 233.491165,236.617783 232.884155,233.731628 
	C227.570389,230.615494 219.017334,237.174927 215.179626,226.808472 
	C223.359055,228.084549 230.823822,224.697464 237.750549,229.153595 
	C238.224060,229.458206 239.260818,229.352585 239.791122,229.032593 
	C245.963669,225.307861 252.744736,227.669830 259.214600,227.008896 
	C259.378845,226.992126 259.637299,226.946854 259.700775,227.030060 
	C262.942322,231.279877 266.336487,228.756409 269.727661,227.885513 
	C269.155060,229.705734 268.561371,230.909561 267.967651,232.113403 
	C266.982666,232.991089 265.398773,233.706177 265.109192,234.772690 
	C263.128723,242.067154 260.916168,243.954422 253.584961,243.991852 
	C251.606354,244.001953 249.627655,243.993393 247.115509,243.993393 
	C247.115509,247.609848 247.115509,251.011154 247.115509,254.387009 
	C242.617508,255.717453 240.939270,254.562042 240.937424,250.123047 
	C240.932755,238.895386 240.789948,238.997467 252.562149,237.897461 
	C255.008865,237.668839 258.990997,238.119308 257.771698,233.420319 
	C252.283844,233.420319 246.975952,233.420319 241.873901,233.420319 
	C241.050018,235.927368 240.195145,238.528671 239.024216,242.091751 
	C234.520309,242.864777 229.162659,243.784348 223.198944,244.807938 
	C223.198944,247.551224 223.198944,250.955246 223.198944,255.564819 
	C220.273911,254.559891 218.174118,253.838470 215.976151,253.083344 
	C215.115448,253.503235 212.754410,255.120056 212.392334,254.754883 
	C210.325272,252.670105 208.734222,250.113358 207.204468,247.564972 
	C209.991364,249.403458 212.228561,250.204361 213.054718,245.867523 
z"/>
<path fill="#E8C114" opacity="1.000000" stroke="none" 
	d="
M163.075104,227.734146 
	C163.048889,227.475037 163.147476,227.278519 163.911682,227.174179 
	C165.656616,227.460846 166.860687,227.717926 168.064758,227.975021 
	C168.064758,227.975021 168.008011,227.998947 167.975952,228.406281 
	C168.242569,231.541428 168.541245,234.269241 168.839905,236.997055 
	C172.381256,237.266739 175.922592,237.536438 180.003418,237.847214 
	C180.003418,234.940796 180.026535,233.151062 179.997620,231.362152 
	C179.960861,229.088409 180.088165,226.377075 183.136368,227.214157 
	C184.724106,227.650162 186.650116,230.071213 186.837357,231.770401 
	C187.343369,236.362274 186.986740,241.047836 187.006592,245.696075 
	C187.009689,246.421936 187.192154,247.147034 188.408920,248.179184 
	C190.604767,243.678955 192.687393,239.118362 195.042007,234.702789 
	C196.309814,232.325317 197.824951,229.982574 199.689270,228.074326 
	C200.320328,227.428406 202.366516,228.165024 204.036713,228.812897 
	C204.563110,229.572266 204.818787,229.788605 205.074463,230.004944 
	C205.074463,230.004944 205.001663,229.992874 205.085571,230.226349 
	C205.398865,230.755661 205.628265,231.051483 205.857651,231.347321 
	C205.857651,231.347321 205.983414,231.504074 206.064178,231.895996 
	C206.378662,232.621826 206.612396,232.955734 206.846146,233.289627 
	C206.846146,233.289627 206.970795,233.484848 207.026596,233.908813 
	C207.328110,234.671265 207.573837,235.009750 207.819550,235.348251 
	C207.819550,235.348251 207.956940,235.515625 208.039871,235.911804 
	C208.361847,236.627548 208.600891,236.947083 208.839951,237.266617 
	C208.839951,237.266617 208.962265,237.493759 208.904221,237.928558 
	C208.807358,238.565704 208.768539,238.768036 208.540192,239.193359 
	C207.212875,239.242432 205.778168,239.438339 205.001450,238.814713 
	C203.551270,237.650406 202.483276,236.010071 201.267349,234.580872 
	C197.415756,236.683655 196.228195,239.394058 197.129364,243.053329 
	C196.085693,245.945175 195.242416,248.933929 193.911438,251.686874 
	C193.272354,253.008743 191.747665,254.700211 190.559021,254.752701 
	C189.135666,254.815582 187.642899,253.306503 186.252869,252.519394 
	C185.566223,252.996887 183.759293,255.050400 182.912262,254.710663 
	C178.091339,252.777100 180.774918,248.150970 179.715500,244.368530 
	C176.512939,244.368530 173.135025,244.368530 168.965897,244.368530 
	C168.965897,246.382523 169.237610,248.652664 168.902969,250.829605 
	C168.385452,254.196365 166.839920,256.323059 163.089600,253.046082 
	C163.087173,244.034958 163.081131,235.884552 163.075104,227.734146 
z"/>
<path fill="#E8C114" opacity="1.000000" stroke="none" 
	d="
M313.814270,252.942047 
	C313.814270,252.942062 313.527863,252.961884 313.209229,252.702545 
	C312.570129,252.295410 312.249664,252.147644 311.929199,251.999878 
	C311.929199,251.999878 312.004242,251.991074 311.916565,251.893768 
	C311.540222,251.579559 311.248566,251.590622 310.953949,251.829666 
	C306.603058,247.496231 304.301636,238.991440 306.435028,235.130127 
	C309.729065,229.168213 319.334106,225.170212 325.553467,227.172318 
	C331.254089,229.007446 334.939667,238.473328 332.738373,246.802048 
	C332.292786,247.583282 332.124603,247.827530 331.995331,248.098557 
	C331.995331,248.098557 332.013000,248.002243 331.732788,248.082962 
	C330.301636,249.466415 329.150757,250.769135 327.999847,252.071869 
	C327.999847,252.071869 327.999329,251.994141 327.808624,252.089600 
	C327.320435,252.342606 327.058258,252.545731 326.831421,252.794434 
	C326.831421,252.794434 326.509827,252.943192 326.016052,252.983734 
	C324.950256,253.285614 324.378174,253.546951 323.806122,253.808289 
	C323.806122,253.808289 323.517548,253.948486 322.904114,253.952942 
	C320.498566,253.974365 318.706451,253.991318 316.914307,254.008270 
	C316.914307,254.008255 316.473175,253.952011 316.018066,253.694427 
	C314.980042,253.271927 314.397156,253.106979 313.814270,252.942047 
M326.009888,234.989563 
	C326.009888,234.989563 326.009644,235.116135 325.715302,234.675552 
	C325.448029,234.447571 325.180725,234.219604 325.009674,233.998795 
	C325.009674,233.998795 325.002838,234.095032 324.710815,233.601898 
	C324.394440,233.391647 324.078033,233.181381 323.444946,232.981140 
	C323.444946,232.981140 323.151978,232.860382 322.508911,232.478928 
	C320.684326,232.708786 318.859711,232.938644 316.671173,233.794922 
	C312.107208,233.930420 311.476593,238.022064 311.569946,240.675293 
	C311.705841,244.537354 313.848480,248.315933 318.471710,248.903824 
	C321.745361,249.320129 325.183990,249.249344 326.785980,244.665222 
	C327.202271,243.689316 327.618591,242.713425 327.991272,241.258987 
	C327.971191,240.937073 327.994415,240.618317 328.341675,239.798508 
	C327.947632,238.805252 327.553558,237.812012 327.030792,236.515854 
	C327.030792,236.515854 327.009491,236.187424 326.720520,235.711548 
	C326.441467,235.470596 326.162384,235.229645 326.009888,234.989563 
z"/>
<path fill="#E7C11D" opacity="1.000000" stroke="none" 
	d="
M438.149445,234.915390 
	C435.740082,234.307541 433.334808,233.354691 430.918518,233.325836 
	C430.286499,233.318283 429.513733,236.149109 429.011017,237.741226 
	C428.726776,238.641388 428.860443,239.673492 428.174377,240.662766 
	C426.292542,239.452621 425.042236,238.225891 423.613281,236.660934 
	C423.434601,233.515167 423.434601,230.707626 423.434601,228.438538 
	C425.899780,227.907349 427.507690,227.560867 429.115570,227.214401 
	C431.553497,227.144669 434.000214,227.178268 436.426544,226.972137 
	C438.326111,226.810760 440.200500,226.352386 442.896362,226.043213 
	C446.167114,226.359818 448.627563,226.659195 451.088043,226.958572 
	C451.088043,226.958572 451.015778,226.983444 451.158142,227.172684 
	C451.589294,227.582733 451.878052,227.803528 452.166809,228.024323 
	C454.296875,231.438370 451.474762,232.531769 449.309875,232.847717 
	C445.604919,233.388412 444.922028,235.647308 444.203033,239.150452 
	C443.408325,244.451797 443.207642,249.247299 443.006958,254.042801 
	C443.006958,254.042801 442.993683,253.994553 442.610809,253.985870 
	C441.142883,253.986313 440.057800,253.995422 438.972748,254.004547 
	C438.972748,254.004532 439.005798,253.994156 439.028564,253.541473 
	C438.750732,247.031006 438.450073,240.973190 438.149445,234.915390 
z"/>
<path fill="#EAC110" opacity="1.000000" stroke="none" 
	d="
M423.791931,236.999146 
	C425.042236,238.225891 426.292542,239.452621 427.829590,240.870941 
	C428.070648,241.496780 428.024902,241.931015 427.588013,242.848969 
	C425.626038,246.028229 424.917877,248.654541 427.811462,250.991806 
	C427.026062,255.624741 424.363739,254.689240 422.130219,252.505051 
	C419.981415,250.403717 418.675507,247.454895 416.587555,245.272354 
	C414.964905,243.576263 413.719208,240.201111 410.021912,242.993958 
	C409.825958,245.062454 410.034851,246.538437 409.720520,247.893005 
	C409.332275,249.566345 408.509155,251.138794 407.873932,252.754837 
	C407.312439,252.604645 406.750946,252.454468 406.189484,252.304276 
	C405.748047,249.931763 405.306641,247.559250 404.891449,244.819962 
	C404.942169,243.963531 404.966675,243.473877 405.005981,242.535309 
	C405.176910,238.604156 405.721893,235.082657 405.375549,231.651108 
	C405.054077,228.465591 406.492126,227.446945 409.077393,226.942383 
	C409.077393,226.942383 409.016754,226.972565 409.089355,227.252243 
	C409.807709,228.012161 410.453461,228.492401 411.099243,228.972626 
	C411.099243,228.972626 411.019318,228.991486 411.136749,229.183105 
	C411.533447,229.582886 411.812744,229.791031 412.092010,229.999191 
	C412.092010,229.999191 412.000641,230.001587 412.131287,230.182922 
	C412.537354,230.575363 412.812775,230.786484 413.088196,230.997589 
	C413.088196,230.997589 413.018250,230.978775 413.050598,231.273743 
	C413.751007,232.377518 414.419067,233.186340 415.087128,233.995163 
	C415.087128,233.995163 415.006439,233.997513 415.118164,234.194275 
	C415.509430,234.592850 415.789032,234.794662 416.068604,234.996475 
	C416.068604,234.996475 416.002563,234.995804 416.081512,235.222290 
	C416.391113,235.723221 416.621765,235.997650 416.852417,236.272095 
	C416.852417,236.272095 416.985779,236.494812 417.109009,236.880188 
	C417.512482,237.514252 417.792725,237.762939 418.072968,238.011627 
	C418.072968,238.011627 417.990265,238.005341 418.109497,238.197571 
	C418.505005,238.593353 418.781281,238.796890 419.057556,239.000427 
	C419.057556,239.000427 418.993835,239.003143 419.096588,239.216522 
	C419.489044,239.615616 419.778778,239.801346 420.068481,239.987061 
	C420.068481,239.987061 420.007385,239.995560 420.047913,240.272095 
	C420.439850,241.038635 420.791260,241.528625 421.142700,242.018600 
	C421.142700,242.018600 421.038971,242.006424 421.028778,242.212494 
	C421.021271,242.590256 421.023956,242.761917 421.097412,243.194962 
	C421.775909,242.965622 422.383636,242.474899 423.055115,241.627563 
	C423.343231,239.847015 423.567596,238.423096 423.791931,236.999146 
z"/>
<path fill="#EAC110" opacity="1.000000" stroke="none" 
	d="
M371.166931,236.187256 
	C370.611572,235.474976 370.056213,234.762711 369.038544,233.775543 
	C368.370544,233.301285 368.140808,233.135147 367.886993,233.002213 
	C367.886993,233.002213 368.019409,232.986191 367.692993,232.797180 
	C362.227325,232.416656 357.088104,232.225159 351.948883,232.033661 
	C351.948883,232.033676 352.000793,232.004501 352.017395,231.611115 
	C351.654694,228.251434 353.012634,226.942139 355.937592,227.111343 
	C360.984344,227.403320 366.031433,227.688477 371.078400,227.976501 
	C371.078400,227.976517 371.001953,227.989761 371.129120,228.179718 
	C371.533905,228.581116 371.811523,228.792557 372.089172,229.003998 
	C372.089172,229.003983 372.003937,228.991302 372.087433,229.274261 
	C373.476685,230.700455 374.782440,231.843674 376.088196,232.986877 
	C376.088196,232.986877 376.020142,232.988586 376.015747,233.326141 
	C376.706268,235.094833 377.401215,236.525955 378.096130,237.957077 
	C378.096130,237.957077 378.048492,238.006073 378.054993,238.330032 
	C378.361084,240.044891 378.660675,241.435806 378.960266,242.826706 
	C377.761139,244.613449 376.766113,246.591614 375.313293,248.140350 
	C373.323639,250.261383 370.986359,252.056351 368.122437,253.845245 
	C363.664154,253.807343 359.869751,254.123062 356.105530,253.908508 
	C354.817474,253.835098 353.605194,252.432419 352.358276,251.637039 
	C353.564178,251.055145 354.714874,250.196075 355.986267,249.942780 
	C359.975891,249.147919 364.011017,248.581161 368.028503,247.926086 
	C368.028503,247.926086 368.009644,248.021011 368.200867,247.893921 
	C368.596466,247.482147 368.800842,247.197449 369.005188,246.912750 
	C369.005188,246.912750 369.002075,246.995682 369.263855,246.905701 
	C370.015442,246.183731 370.505219,245.551758 370.995026,244.919785 
	C370.995026,244.919785 371.000916,245.006760 371.187439,244.877472 
	C371.586090,244.469208 371.798248,244.190231 372.010406,243.911255 
	C372.010406,243.911255 372.012451,244.012558 372.257080,243.825806 
	C374.739838,240.674545 373.906891,238.260117 371.166931,236.187256 
z"/>
<path fill="#EAC110" opacity="1.000000" stroke="none" 
	d="
M268.057068,232.383240 
	C268.561371,230.909561 269.155060,229.705734 269.893036,228.199173 
	C272.768829,230.229996 275.500305,232.563568 278.251373,234.913879 
	C280.232361,232.703735 281.886932,230.480072 283.943207,228.727814 
	C284.926270,227.890106 286.671295,227.946533 288.071228,227.597961 
	C288.132324,229.135986 288.808472,231.061462 288.132172,232.134949 
	C286.500488,234.724945 284.236633,236.916702 282.117279,239.873352 
	C282.010895,240.668671 282.014923,240.859680 282.018921,241.050674 
	C282.018921,241.050674 282.004272,240.991791 281.755981,241.111145 
	C281.314728,241.577469 281.121765,241.924438 280.928833,242.271423 
	C280.928833,242.271423 280.955292,242.558868 280.702454,243.056763 
	C280.275391,245.688263 280.319855,247.873444 279.834106,249.933624 
	C279.593536,250.953934 278.377197,251.744186 277.602295,252.638550 
	C277.051147,251.737701 276.171204,250.891556 276.010529,249.925751 
	C275.530914,247.042099 275.333221,244.111572 275.025452,241.199341 
	C273.754059,239.706970 272.482635,238.214584 271.021240,236.123505 
	C270.278168,235.011292 269.725128,234.497772 269.172058,233.984268 
	C268.830200,233.540543 268.488312,233.096832 268.057068,232.383240 
z"/>
<path fill="#E7C11D" opacity="1.000000" stroke="none" 
	d="
M391.171570,247.932449 
	C395.317230,248.195282 398.996796,248.450775 402.814667,248.715866 
	C402.814667,251.105698 402.814667,252.724060 402.814667,254.924789 
	C396.108429,254.924789 389.374207,255.158157 382.684265,254.718109 
	C381.421539,254.635056 380.335052,251.872635 378.699036,249.734695 
	C383.707825,248.979782 387.206665,248.452438 391.171570,247.932449 
z"/>
<path fill="#E7C11D" opacity="1.000000" stroke="none" 
	d="
M379.385620,242.908051 
	C378.660675,241.435806 378.361084,240.044891 378.058258,238.296021 
	C385.325836,237.824493 392.596771,237.650421 399.867310,237.665390 
	C400.906616,237.667526 401.944031,238.584167 402.897766,239.737183 
	C403.539215,241.259262 404.265167,242.121750 404.991150,242.984222 
	C404.966675,243.473877 404.942169,243.963531 404.664246,244.801544 
	C404.410797,245.149902 403.952728,245.143082 403.952728,245.143082 
	C397.789764,244.761826 391.623016,244.431152 385.466095,243.969147 
	C383.567261,243.826660 381.695251,243.326035 379.385620,242.908051 
M381.291046,241.382935 
	C381.498840,241.619690 381.737793,241.819077 382.943207,241.991089 
	C388.602112,241.991089 394.261047,241.991089 399.919952,241.991089 
	C396.434021,238.098083 384.772003,238.201157 381.291046,241.382935 
z"/>
<path fill="#DCC34C" opacity="1.000000" stroke="none" 
	d="
M108.360458,237.907623 
	C111.602242,225.387451 109.611488,212.416946 110.024696,199.578568 
	C110.097862,197.305298 109.476410,195.009644 109.098816,192.304779 
	C110.009567,193.257690 111.820137,194.610443 111.853592,196.005783 
	C112.103172,206.415146 112.275925,216.844025 111.856697,227.241943 
	C111.713905,230.783493 109.803978,234.253784 108.360458,237.907623 
z"/>
<path fill="#54325A" opacity="1.000000" stroke="none" 
	d="
M188.180054,262.359833 
	C189.750809,270.903168 188.924500,271.770477 180.406769,270.505096 
	C180.285706,269.180756 180.107651,267.749084 180.037338,266.312164 
	C179.972565,264.988617 180.023560,263.659424 180.023560,262.208313 
	C182.762802,262.208313 185.294342,262.208313 188.180054,262.359833 
z"/>
<path fill="#E7C11D" opacity="1.000000" stroke="none" 
	d="
M403.051392,230.169403 
	C401.592377,231.108887 400.184570,232.746872 398.664856,232.858292 
	C393.900574,233.207535 389.064148,233.280960 384.321350,232.805847 
	C382.791962,232.652634 381.465851,230.470093 380.046753,229.215912 
	C381.459320,228.478058 382.853241,227.151169 384.287720,227.105804 
	C390.055298,226.923325 395.835449,227.137344 401.366547,227.600555 
	C395.159790,227.996262 389.197418,227.996262 382.151031,227.996262 
	C386.211365,231.422699 398.532562,231.989990 401.225128,229.698471 
	C401.674927,229.315674 401.787109,228.536194 402.055298,227.940002 
	C402.411499,227.945908 402.690887,228.095398 402.964447,228.950104 
	C403.040771,229.730942 403.046082,229.950180 403.051392,230.169403 
z"/>
<path fill="#54325A" opacity="1.000000" stroke="none" 
	d="
M197.113007,272.427887 
	C192.922592,270.583954 193.585907,266.811890 194.439987,263.741791 
	C194.757538,262.600342 198.001236,262.272919 200.652298,261.302856 
	C200.652298,265.973846 200.652298,269.433685 200.099823,272.894226 
	C198.735901,272.739258 197.924454,272.583557 197.113007,272.427887 
z"/>
<path fill="#DCC34C" opacity="1.000000" stroke="none" 
	d="
M416.858246,271.515747 
	C418.414490,272.926575 419.666595,274.123993 417.358826,276.214905 
	C414.957245,278.390839 413.234497,281.338348 410.759369,283.402100 
	C409.311890,284.608978 406.973633,284.747498 405.036102,285.366608 
	C404.762390,284.981018 404.488678,284.595428 404.214966,284.209808 
	C408.193726,280.224518 412.172485,276.239197 416.324402,271.917267 
	C416.497528,271.580658 416.858246,271.515747 416.858246,271.515747 
z"/>
<path fill="#DCC34C" opacity="1.000000" stroke="none" 
	d="
M196.962402,272.677002 
	C197.924454,272.583557 198.735901,272.739258 199.792099,273.109619 
	C203.913345,276.642120 207.789841,279.959961 211.666336,283.277802 
	C204.557083,285.265869 198.561447,280.124908 196.962402,272.677002 
z"/>
<path fill="#54325A" opacity="1.000000" stroke="none" 
	d="
M340.329468,270.534729 
	C338.559692,270.690216 337.134766,270.810974 335.359283,270.961426 
	C335.359283,267.965424 335.359283,265.407501 335.359283,262.718170 
	C338.592834,261.339935 340.754944,262.353302 342.116852,265.367279 
	C343.202576,267.770020 342.841553,268.966736 340.329468,270.534729 
z"/>
<path fill="#54325A" opacity="1.000000" stroke="none" 
	d="
M361.627289,262.254547 
	C362.862244,264.749695 363.718903,267.307373 364.766052,270.433868 
	C361.403992,270.598114 359.497162,270.691284 357.275940,270.799835 
	C357.275940,267.919495 357.275940,265.326569 357.275940,262.317078 
	C358.760284,262.317078 360.004639,262.317078 361.627289,262.254547 
z"/>
<path fill="#DCC34C" opacity="1.000000" stroke="none" 
	d="
M367.575623,247.957062 
	C364.011017,248.581161 359.975891,249.147919 355.986267,249.942780 
	C354.714874,250.196075 353.564178,251.055145 352.358276,251.637039 
	C353.605194,252.432419 354.817474,253.835098 356.105530,253.908508 
	C359.869751,254.123062 363.664154,253.807343 367.763306,253.884247 
	C362.763977,254.351532 357.448029,254.760696 352.132111,254.760941 
	C351.444275,254.760971 349.997192,252.431580 350.243896,251.561966 
	C350.627716,250.209030 352.085205,248.274643 353.223663,248.177292 
	C357.828430,247.783508 362.485168,247.998016 367.575623,247.957062 
z"/>
<path fill="#54325A" opacity="1.000000" stroke="none" 
	d="
M268.340637,262.323639 
	C268.995422,264.738495 269.525909,267.029724 269.426086,269.293121 
	C269.401184,269.858704 266.907379,271.061890 266.313812,270.703674 
	C264.996521,269.908630 263.371918,268.332001 263.335724,267.033295 
	C263.291046,265.429749 264.610809,263.703613 265.614624,262.214935 
	C265.865295,261.843201 267.165405,262.179077 268.340637,262.323639 
z"/>
<path fill="#54325A" opacity="1.000000" stroke="none" 
	d="
M432.878021,269.933044 
	C430.963989,270.246918 427.741577,270.511505 427.679077,270.180023 
	C427.238586,267.844879 427.336548,265.376282 427.568329,262.979889 
	C427.603851,262.612640 429.368988,261.965546 430.060883,262.212769 
	C431.120758,262.591400 432.465149,263.478912 432.749390,264.430939 
	C433.230194,266.041168 432.976868,267.870605 432.878021,269.933044 
z"/>
<path fill="#54325A" opacity="1.000000" stroke="none" 
	d="
M409.393433,262.389893 
	C410.066559,264.688873 410.619415,266.834564 410.615784,268.979309 
	C410.614685,269.627167 409.026764,270.841156 408.243134,270.781342 
	C407.153961,270.698242 405.555420,269.876923 405.220428,268.980774 
	C404.651855,267.459656 404.336243,265.358307 404.987427,264.024811 
	C405.483826,263.008179 407.641235,262.802643 409.393433,262.389893 
z"/>
<path fill="#E7C11D" opacity="1.000000" stroke="none" 
	d="
M197.450409,242.909073 
	C196.228195,239.394058 197.415756,236.683655 201.267349,234.580872 
	C202.483276,236.010071 203.551270,237.650406 205.001450,238.814713 
	C205.778168,239.438339 207.212875,239.242432 208.677917,239.519485 
	C209.402588,240.716782 209.799988,241.810928 209.824905,242.922104 
	C208.032684,243.291183 206.612961,243.643250 205.193237,243.995331 
	C205.026871,243.715210 204.853531,243.438950 204.695145,243.154388 
	C201.443924,237.312378 201.444260,237.312195 197.450409,242.909073 
z"/>
<path fill="#54325A" opacity="1.000000" stroke="none" 
	d="
M258.597321,263.225250 
	C258.754578,265.811829 258.754578,268.040466 258.754578,270.567505 
	C257.013916,270.567505 255.448822,270.567505 253.109070,270.567505 
	C253.237579,267.993408 253.142502,265.427307 253.707825,263.016083 
	C253.801025,262.618530 256.789581,262.899780 258.597321,263.225250 
z"/>
<path fill="#54325A" opacity="1.000000" stroke="none" 
	d="
M417.145538,271.314514 
	C416.858246,271.515747 416.497528,271.580658 416.314758,271.590332 
	C416.092224,269.801208 415.791138,267.957458 416.090576,266.217010 
	C416.358093,264.662109 417.288483,263.221252 417.926331,261.730072 
	C419.252106,262.933441 421.060486,263.910156 421.763123,265.406189 
	C422.419922,266.804688 421.903625,268.754181 421.903625,270.578644 
	C420.180237,270.784760 418.806519,270.949036 417.145538,271.314514 
z"/>
<path fill="#54325A" opacity="1.000000" stroke="none" 
	d="
M441.639648,262.034363 
	C442.730988,264.708496 443.415131,267.368561 444.230560,270.539062 
	C441.881348,270.539062 440.230316,270.539062 438.097351,270.539062 
	C438.989807,267.409576 435.129852,263.118134 441.639648,262.034363 
z"/>
<path fill="#54325A" opacity="1.000000" stroke="none" 
	d="
M287.718079,268.859131 
	C285.954987,269.937531 284.136292,270.662079 280.721252,272.022583 
	C281.615479,267.756744 282.307831,264.453918 283.000214,261.151093 
	C283.654999,261.109650 284.309814,261.068176 284.964630,261.026733 
	C285.863922,263.519562 286.763184,266.012390 287.718079,268.859131 
z"/>
<path fill="#54325A" opacity="1.000000" stroke="none" 
	d="
M231.074066,266.873840 
	C231.010895,264.127960 231.340988,261.795166 234.354965,262.271545 
	C235.359940,262.430389 236.857834,264.389648 236.776581,265.418976 
	C236.632782,267.240479 235.452042,268.980072 234.705261,270.753967 
	C233.496475,269.598602 232.287689,268.443207 231.074066,266.873840 
z"/>
<path fill="#54325A" opacity="1.000000" stroke="none" 
	d="
M381.238159,261.525574 
	C382.821167,264.206787 384.115082,267.041443 385.628082,270.356140 
	C382.518127,270.356140 380.681061,270.356140 378.503540,270.356140 
	C378.130188,267.276642 377.770782,264.056488 381.238159,261.525574 
z"/>
<path fill="#54325A" opacity="1.000000" stroke="none" 
	d="
M348.937378,270.873505 
	C347.870697,268.471344 347.193207,266.105408 346.515747,263.739441 
	C348.337982,263.422333 350.592804,262.288116 351.884918,262.972229 
	C354.029510,264.107727 351.952240,270.155212 348.937378,270.873505 
z"/>
<path fill="#54325A" opacity="1.000000" stroke="none" 
	d="
M164.666260,270.432861 
	C164.458755,267.875977 164.594330,265.231873 164.729904,262.587738 
	C165.797043,262.870178 167.484695,262.839233 167.815277,263.493683 
	C168.817444,265.477844 169.294189,267.727417 170.125519,270.345642 
	C168.034073,270.345642 166.521713,270.345642 164.666260,270.432861 
z"/>
<path fill="#54325A" opacity="1.000000" stroke="none" 
	d="
M243.256027,262.337921 
	C245.042389,262.953064 246.452988,263.721588 247.863586,264.490112 
	C246.646317,266.688995 245.429047,268.887878 244.211761,271.086761 
	C243.539551,270.896179 242.867325,270.705597 242.195114,270.515015 
	C242.423492,267.840454 242.651886,265.165894 243.256027,262.337921 
z"/>
<path fill="#DCC34C" opacity="1.000000" stroke="none" 
	d="
M168.046417,227.640686 
	C166.860687,227.717926 165.656616,227.460846 164.081635,227.141769 
	C169.500092,224.811554 165.750076,221.053268 165.945618,216.576324 
	C167.392776,217.619232 169.279831,218.372192 170.197342,219.764206 
	C172.231857,222.850845 170.393417,225.251740 168.046417,227.640686 
z"/>
<path fill="#DCC34C" opacity="1.000000" stroke="none" 
	d="
M450.944061,226.649551 
	C448.627563,226.659195 446.167114,226.359818 443.307434,225.984619 
	C443.306549,225.594055 443.704895,225.279297 444.664642,224.924377 
	C445.771149,224.490051 446.316254,224.095886 446.861359,223.701736 
	C446.707489,223.499222 446.553619,223.296707 446.399750,223.094193 
	C445.987823,223.424408 445.575897,223.754623 445.163971,224.084839 
	C445.046600,218.031525 445.796814,216.976227 448.705292,217.397034 
	C449.466705,220.647781 450.133392,223.494156 450.944061,226.649551 
z"/>
<path fill="#54325A" opacity="1.000000" stroke="none" 
	d="
M322.462952,270.323822 
	C320.727234,268.071899 319.248047,265.555725 317.386536,262.389191 
	C320.512512,262.389191 322.496460,262.389191 325.161774,262.389191 
	C324.263977,265.208862 323.491699,267.634186 322.462952,270.323822 
z"/>
<path fill="#DCC34C" opacity="1.000000" stroke="none" 
	d="
M59.626083,192.185089 
	C59.866554,204.717331 59.721603,217.457535 59.364113,230.535645 
	C59.181271,218.046722 59.210964,205.219879 59.626083,192.185089 
z"/>
<path fill="#DCC34C" opacity="1.000000" stroke="none" 
	d="
M403.835571,245.473724 
	C403.952728,245.143082 404.410797,245.149902 404.638000,245.168320 
	C405.306641,247.559250 405.748047,249.931763 406.189484,252.304276 
	C406.750946,252.454468 407.312439,252.604645 407.873932,252.754837 
	C408.509155,251.138794 409.332275,249.566345 409.720520,247.893005 
	C410.034851,246.538437 409.825958,245.062454 410.014404,243.320221 
	C410.440247,246.202606 410.934814,249.415024 410.800079,252.600815 
	C410.765503,253.418015 408.401459,255.017380 407.708191,254.742523 
	C406.269318,254.172089 404.735596,252.787277 404.161438,251.365509 
	C403.497040,249.720474 403.822601,247.675629 403.835571,245.473724 
z"/>
<path fill="#54325A" opacity="1.000000" stroke="none" 
	d="
M389.126770,263.737305 
	C390.097778,263.383606 391.602081,263.102173 391.821686,263.510925 
	C392.916199,265.548431 393.673096,267.767334 394.800201,270.541138 
	C392.993042,270.673279 391.334442,270.794556 389.067688,270.960327 
	C389.067688,268.351990 389.067688,266.239899 389.126770,263.737305 
z"/>
<path fill="#54325A" opacity="1.000000" stroke="none" 
	d="
M218.036102,267.354187 
	C217.864578,268.648926 217.708099,269.586700 217.551620,270.524506 
	C217.096817,270.621796 216.642014,270.719116 216.187210,270.816406 
	C215.474411,268.175415 214.761627,265.534393 213.895767,262.326233 
	C216.300446,262.182831 218.054474,262.078217 220.856171,261.911133 
	C219.672211,264.057892 218.861679,265.527588 218.036102,267.354187 
z"/>
<path fill="#54325A" opacity="1.000000" stroke="none" 
	d="
M296.484863,270.847656 
	C291.511810,270.358734 290.547791,267.167664 293.962097,261.560089 
	C295.042938,264.975189 295.964630,267.887390 296.484863,270.847656 
z"/>
<path fill="#54325A" opacity="1.000000" stroke="none" 
	d="
M312.965393,267.653381 
	C312.454132,269.089996 311.969055,270.149841 311.099152,272.050446 
	C309.966400,268.320862 309.152985,265.642731 308.195190,262.489197 
	C309.972565,262.489197 311.627502,262.489197 313.729980,262.489197 
	C313.471283,264.166443 313.231384,265.721527 312.965393,267.653381 
z"/>
<path fill="#DCC34C" opacity="1.000000" stroke="none" 
	d="
M275.019104,241.617004 
	C275.333221,244.111572 275.530914,247.042099 276.010529,249.925751 
	C276.171204,250.891556 277.051147,251.737701 277.602295,252.638550 
	C278.377197,251.744186 279.593536,250.953934 279.834106,249.933624 
	C280.319855,247.873444 280.275391,245.688263 280.638855,243.186310 
	C280.880463,245.138763 280.999146,247.460480 280.966949,249.780106 
	C280.933929,252.159943 281.518433,255.707260 277.680206,254.657349 
	C276.069397,254.216736 274.720673,250.925827 274.259979,248.720337 
	C273.824402,246.635178 274.708862,244.274277 275.019104,241.617004 
z"/>
<path fill="#54325A" opacity="1.000000" stroke="none" 
	d="
M368.802795,262.524414 
	C370.730957,262.626556 372.352081,262.949158 373.973206,263.271759 
	C373.311829,265.740662 372.650452,268.209534 371.989075,270.678436 
	C371.614227,270.659363 371.239410,270.640289 370.864563,270.621216 
	C370.074982,267.995789 369.285370,265.370361 368.802795,262.524414 
z"/>
<path fill="#DCC34C" opacity="1.000000" stroke="none" 
	d="
M370.879944,227.621429 
	C366.031433,227.688477 360.984344,227.403320 355.937592,227.111343 
	C353.012634,226.942139 351.654694,228.251434 352.000671,231.635803 
	C351.344757,230.542786 350.722198,229.031693 350.099670,227.520584 
	C351.403320,227.006287 352.727386,226.007599 354.007111,226.061478 
	C359.572296,226.295853 365.124542,226.836807 370.879944,227.621429 
z"/>
<path fill="#E8C114" opacity="1.000000" stroke="none" 
	d="
M205.180847,244.301346 
	C206.612961,243.643250 208.032684,243.291183 210.012863,243.152893 
	C211.330063,243.997559 212.086838,244.628418 212.843597,245.259293 
	C212.843597,245.259293 213.006653,245.543457 213.030685,245.705490 
	C212.228561,250.204361 209.991364,249.403458 207.139709,247.190430 
	C206.290802,246.181015 205.729630,245.394180 205.180847,244.301346 
z"/>
<path fill="#DCC34C" opacity="1.000000" stroke="none" 
	d="
M403.434204,230.320480 
	C403.046082,229.950180 403.040771,229.730942 403.042236,229.182831 
	C404.952972,227.996323 406.856903,227.138718 408.919128,226.611755 
	C406.492126,227.446945 405.054077,228.465591 405.375549,231.651108 
	C405.721893,235.082657 405.176910,238.604156 405.005981,242.535309 
	C404.265167,242.121750 403.539215,241.259262 402.916199,240.100342 
	C403.285095,236.693130 403.551086,233.582336 403.434204,230.320480 
z"/>
<path fill="#54325A" opacity="1.000000" stroke="none" 
	d="
M35.649612,206.187958 
	C35.840763,214.991791 35.710548,224.084839 35.396984,233.530975 
	C35.251842,224.748428 35.290047,215.612793 35.649612,206.187958 
z"/>
<path fill="#54325A" opacity="1.000000" stroke="none" 
	d="
M208.207001,266.630768 
	C209.177078,267.795898 210.069717,268.582550 211.938538,270.229431 
	C209.439056,270.589203 208.053055,270.788696 206.130157,271.065460 
	C205.984451,267.794434 205.864197,265.095093 205.743958,262.395752 
	C206.330078,262.363434 206.916199,262.331116 207.502335,262.298798 
	C207.711411,263.616608 207.920486,264.934448 208.207001,266.630768 
z"/>
<path fill="#DCC34C" opacity="1.000000" stroke="none" 
	d="
M423.613281,236.660950 
	C423.567596,238.423096 423.343231,239.847015 422.815399,241.648285 
	C422.511902,242.025620 422.031708,242.058868 422.006500,242.022583 
	C421.981293,241.986313 421.923553,241.919434 421.923553,241.919434 
	C421.945953,238.428040 421.969940,234.936661 421.990387,231.445251 
	C422.024231,225.661545 422.890503,225.055313 428.709778,227.123230 
	C427.507690,227.560867 425.899780,227.907349 423.434601,228.438538 
	C423.434601,230.707626 423.434601,233.515167 423.613281,236.660950 
z"/>
<path fill="#54325A" opacity="1.000000" stroke="none" 
	d="
M274.010010,266.909424 
	C274.233612,265.023743 274.461456,263.556122 274.689301,262.088501 
	C275.208099,262.151581 275.726868,262.214630 276.245667,262.277679 
	C276.245667,265.031464 276.245667,267.785248 276.245667,270.539032 
	C275.839508,270.640442 275.433350,270.741852 275.027191,270.843262 
	C274.689545,269.671326 274.351898,268.499420 274.010010,266.909424 
z"/>
<path fill="#54325A" opacity="1.000000" stroke="none" 
	d="
M304.026794,267.648163 
	C303.647064,268.873596 303.275635,269.685425 302.904205,270.497253 
	C302.331573,269.993317 301.311676,269.527496 301.264862,268.978699 
	C301.075684,266.760956 301.186371,264.517700 301.186371,262.283844 
	C301.848846,262.201172 302.511292,262.118530 303.173767,262.035858 
	C303.460907,263.768738 303.748016,265.501648 304.026794,267.648163 
z"/>
<path fill="#DCC34C" opacity="1.000000" stroke="none" 
	d="
M162.696350,227.989868 
	C163.081131,235.884552 163.087173,244.034958 163.083649,252.669403 
	C162.723480,250.647003 162.106613,248.143829 162.076035,245.633484 
	C162.005386,239.839371 162.219162,234.041779 162.696350,227.989868 
z"/>
<path fill="#DCC34C" opacity="1.000000" stroke="none" 
	d="
M438.088440,235.389221 
	C438.450073,240.973190 438.750732,247.031006 439.023621,253.558075 
	C438.673035,247.972580 438.350220,241.917816 438.088440,235.389221 
z"/>
<path fill="#DCC34C" opacity="1.000000" stroke="none" 
	d="
M106.756378,192.094696 
	C104.073906,192.777435 100.946037,193.387039 97.369125,193.987457 
	C100.050377,193.326035 103.180679,192.673782 106.756378,192.094696 
z"/>
<path fill="#DCC34C" opacity="1.000000" stroke="none" 
	d="
M352.165771,232.413269 
	C357.088104,232.225159 362.227325,232.416656 367.701477,232.863342 
	C362.818481,233.009964 357.600555,232.901413 352.165771,232.413269 
z"/>
<path fill="#DCC34C" opacity="1.000000" stroke="none" 
	d="
M443.379333,253.817566 
	C443.207642,249.247299 443.408325,244.451797 443.878540,239.339554 
	C444.015930,243.879318 443.883820,248.735809 443.379333,253.817566 
z"/>
<path fill="#E7C11D" opacity="1.000000" stroke="none" 
	d="
M427.885773,250.607056 
	C424.917877,248.654541 425.626038,246.028229 427.515503,243.168915 
	C427.876160,245.410858 427.918121,247.816574 427.885773,250.607056 
z"/>
<path fill="#DCC34C" opacity="1.000000" stroke="none" 
	d="
M371.105865,236.571350 
	C373.906891,238.260117 374.739838,240.674545 372.206421,243.827209 
	C371.622375,241.662048 371.333588,239.308731 371.105865,236.571350 
z"/>
<path fill="#DCC34C" opacity="1.000000" stroke="none" 
	d="
M99.372368,248.045685 
	C100.792282,246.366714 102.559547,244.664383 104.688828,242.996124 
	C103.273796,244.694244 101.496758,246.358292 99.372368,248.045685 
z"/>
<path fill="#DCC34C" opacity="1.000000" stroke="none" 
	d="
M96.636391,193.944870 
	C95.265953,195.134094 93.521637,196.356598 91.471222,197.600342 
	C92.864250,196.407104 94.563385,195.192627 96.636391,193.944870 
z"/>
<path fill="#DCC34C" opacity="1.000000" stroke="none" 
	d="
M212.871796,244.883240 
	C212.086838,244.628418 211.330063,243.997559 210.385345,243.135895 
	C209.799988,241.810928 209.402588,240.716782 208.867462,239.296494 
	C208.768539,238.768036 208.807358,238.565704 208.897415,238.057373 
	C210.265778,240.003326 211.582886,242.255264 212.871796,244.883240 
z"/>
<path fill="#DCC34C" opacity="1.000000" stroke="none" 
	d="
M376.049744,232.615723 
	C374.782440,231.843674 373.476685,230.700455 372.093933,229.231689 
	C373.348389,230.018936 374.679840,231.131760 376.049744,232.615723 
z"/>
<path fill="#DCC34C" opacity="1.000000" stroke="none" 
	d="
M168.905838,236.560776 
	C168.541245,234.269241 168.242569,231.541428 167.989975,228.378860 
	C168.347961,230.670898 168.659866,233.397705 168.905838,236.560776 
z"/>
<path fill="#DCC34C" opacity="1.000000" stroke="none" 
	d="
M328.353424,252.034592 
	C329.150757,250.769135 330.301636,249.466415 331.780914,248.091980 
	C330.975189,249.345963 329.841095,250.671631 328.353424,252.034592 
z"/>
<path fill="#DCC34C" opacity="1.000000" stroke="none" 
	d="
M378.053589,237.585419 
	C377.401215,236.525955 376.706268,235.094833 376.019714,233.292328 
	C376.689026,234.351883 377.350037,235.782822 378.053589,237.585419 
z"/>
<path fill="#DCC34C" opacity="1.000000" stroke="none" 
	d="
M95.452888,249.886963 
	C96.202858,249.187653 97.281395,248.562866 98.709816,247.988037 
	C97.966949,248.679169 96.874199,249.320328 95.452888,249.886963 
z"/>
<path fill="#DCC34C" opacity="1.000000" stroke="none" 
	d="
M317.114258,254.348755 
	C318.706451,253.991318 320.498566,253.974365 322.743713,253.951462 
	C321.235901,254.193420 319.275085,254.441330 317.114258,254.348755 
z"/>
<path fill="#DCC34C" opacity="1.000000" stroke="none" 
	d="
M106.350983,241.924698 
	C106.479042,240.767441 106.929642,239.483704 107.722717,238.101959 
	C107.601311,239.268692 107.137421,240.533463 106.350983,241.924698 
z"/>
<path fill="#DCC34C" opacity="1.000000" stroke="none" 
	d="
M439.128479,254.323730 
	C440.057800,253.995422 441.142883,253.986313 442.634918,253.992554 
	C441.789337,254.219574 440.536743,254.431244 439.128479,254.323730 
z"/>
<path fill="#DCC34C" opacity="1.000000" stroke="none" 
	d="
M411.055786,228.625336 
	C410.453461,228.492401 409.807709,228.012161 409.092804,227.218536 
	C409.686523,227.362778 410.349426,227.820389 411.055786,228.625336 
z"/>
<path fill="#DCC34C" opacity="1.000000" stroke="none" 
	d="
M415.052673,233.661407 
	C414.419067,233.186340 413.751007,232.377518 413.060547,231.238922 
	C413.698181,231.715317 414.358215,232.521484 415.052673,233.661407 
z"/>
<path fill="#E7C11D" opacity="1.000000" stroke="none" 
	d="
M445.059021,224.324783 
	C445.575897,223.754623 445.987823,223.424408 446.399750,223.094193 
	C446.553619,223.296707 446.707489,223.499222 446.861359,223.701736 
	C446.316254,224.095886 445.771149,224.490051 444.948120,224.944611 
	C444.764832,224.858246 444.859436,224.711487 445.059021,224.324783 
z"/>
<path fill="#DCC34C" opacity="1.000000" stroke="none" 
	d="
M370.706543,245.020081 
	C370.505219,245.551758 370.015442,246.183731 369.222412,246.904022 
	C369.418793,246.368347 369.918427,245.744370 370.706543,245.020081 
z"/>
<path fill="#E7C11D" opacity="1.000000" stroke="none" 
	d="
M269.161743,234.284943 
	C269.725128,234.497772 270.278168,235.011292 270.895691,235.816177 
	C270.357239,235.600220 269.754333,235.092911 269.161743,234.284943 
z"/>
<path fill="#DCC34C" opacity="1.000000" stroke="none" 
	d="
M421.078735,241.696869 
	C420.791260,241.528625 420.439850,241.038635 420.058167,240.243011 
	C420.356842,240.416626 420.685791,240.895889 421.078735,241.696869 
z"/>
<path fill="#DCC34C" opacity="1.000000" stroke="none" 
	d="
M313.972107,253.244232 
	C314.397156,253.106979 314.980042,253.271927 315.809357,253.617752 
	C315.413849,253.714569 314.771881,253.630493 313.972107,253.244232 
z"/>
<path fill="#DCC34C" opacity="1.000000" stroke="none" 
	d="
M324.153687,253.874878 
	C324.378174,253.546951 324.950256,253.285614 325.839172,252.993103 
	C325.604431,253.288437 325.052826,253.614960 324.153687,253.874878 
z"/>
<path fill="#DCC34C" opacity="1.000000" stroke="none" 
	d="
M367.961670,233.234314 
	C368.140808,233.135147 368.370544,233.301285 368.711212,233.662964 
	C368.471344,233.942902 368.201416,233.823273 367.961670,233.234314 
z"/>
<path fill="#DCC34C" opacity="1.000000" stroke="none" 
	d="
M207.859100,235.004944 
	C207.573837,235.009750 207.328110,234.671265 207.010223,234.023468 
	C207.258255,234.029984 207.578445,234.345810 207.859100,235.004944 
z"/>
<path fill="#DCC34C" opacity="1.000000" stroke="none" 
	d="
M417.993774,237.728561 
	C417.792725,237.762939 417.512482,237.514252 417.104126,237.009888 
	C417.288910,236.984634 417.601776,237.215073 417.993774,237.728561 
z"/>
<path fill="#DCC34C" opacity="1.000000" stroke="none" 
	d="
M452.064697,227.751526 
	C451.878052,227.803528 451.589294,227.582733 451.146149,227.136383 
	C451.315369,227.100143 451.639008,227.289429 452.064697,227.751526 
z"/>
<path fill="#DCC34C" opacity="1.000000" stroke="none" 
	d="
M206.885529,232.951401 
	C206.612396,232.955734 206.378662,232.621826 206.048920,231.995331 
	C206.276901,232.006210 206.600906,232.309692 206.885529,232.951401 
z"/>
<path fill="#DCC34C" opacity="1.000000" stroke="none" 
	d="
M413.015869,230.724884 
	C412.812775,230.786484 412.537354,230.575363 412.130035,230.137238 
	C412.313263,230.090866 412.628387,230.271530 413.015869,230.724884 
z"/>
<path fill="#DCC34C" opacity="1.000000" stroke="none" 
	d="
M205.895386,231.026886 
	C205.628265,231.051483 205.398865,230.755661 205.091705,230.189972 
	C205.320343,230.182220 205.626724,230.444336 205.895386,231.026886 
z"/>
<path fill="#DCC34C" opacity="1.000000" stroke="none" 
	d="
M412.018188,229.727203 
	C411.812744,229.791031 411.533447,229.582886 411.127686,229.143066 
	C411.315582,229.092651 411.630005,229.273926 412.018188,229.727203 
z"/>
<path fill="#DCC34C" opacity="1.000000" stroke="none" 
	d="
M205.012146,229.740356 
	C204.818787,229.788605 204.563110,229.572266 204.184372,229.135208 
	C204.357483,229.101578 204.653656,229.288666 205.012146,229.740356 
z"/>
<path fill="#DCC34C" opacity="1.000000" stroke="none" 
	d="
M372.008850,228.734558 
	C371.811523,228.792557 371.533905,228.581116 371.122681,228.141449 
	C371.302246,228.097198 371.615417,228.281174 372.008850,228.734558 
z"/>
<path fill="#DCC34C" opacity="1.000000" stroke="none" 
	d="
M109.001404,191.703964 
	C108.887611,191.966675 108.685646,191.975647 108.179901,191.977524 
	C108.221832,191.797028 108.567535,191.623642 109.001404,191.703964 
z"/>
<path fill="#DCC34C" opacity="1.000000" stroke="none" 
	d="
M61.034889,191.833389 
	C60.948856,192.070648 60.753101,192.083130 60.266392,192.051834 
	C60.292015,191.874908 60.608589,191.741760 61.034889,191.833389 
z"/>
<path fill="#DCC34C" opacity="1.000000" stroke="none" 
	d="
M312.037720,252.286484 
	C312.249664,252.147644 312.570129,252.295410 313.085510,252.629761 
	C312.902344,252.735245 312.524261,252.654160 312.037720,252.286484 
z"/>
<path fill="#DCC34C" opacity="1.000000" stroke="none" 
	d="
M421.026642,242.933594 
	C421.023956,242.761917 421.021271,242.590256 421.035431,242.160706 
	C421.052277,241.902832 421.487000,241.960587 421.705261,241.940002 
	C421.923553,241.919434 421.981293,241.986313 421.864136,242.195999 
	C421.534485,242.619324 421.294373,242.795288 421.026642,242.933594 
z"/>
<path fill="#DCC34C" opacity="1.000000" stroke="none" 
	d="
M105.281021,242.997070 
	C105.190109,242.760086 105.368126,242.463074 105.802124,242.087372 
	C105.888710,242.318115 105.719322,242.627579 105.281021,242.997070 
z"/>
<path fill="#DCC34C" opacity="1.000000" stroke="none" 
	d="
M371.743530,243.996323 
	C371.798248,244.190231 371.586090,244.469208 371.143951,244.880554 
	C371.101532,244.702393 371.289062,244.391891 371.743530,243.996323 
z"/>
<path fill="#DCC34C" opacity="1.000000" stroke="none" 
	d="
M332.244629,248.025787 
	C332.124603,247.827530 332.292786,247.583282 332.667145,247.219376 
	C332.720947,247.366302 332.607452,247.659653 332.244629,248.025787 
z"/>
<path fill="#DCC34C" opacity="1.000000" stroke="none" 
	d="
M368.734436,246.988495 
	C368.800842,247.197449 368.596466,247.482147 368.153320,247.884949 
	C368.097595,247.690140 368.280640,247.377197 368.734436,246.988495 
z"/>
<path fill="#DCC34C" opacity="1.000000" stroke="none" 
	d="
M281.190369,242.125290 
	C281.121765,241.924438 281.314728,241.577469 281.786163,241.114029 
	C281.860382,241.324768 281.656128,241.651962 281.190369,242.125290 
z"/>
<path fill="#DCC34C" opacity="1.000000" stroke="none" 
	d="
M311.215027,251.905823 
	C311.248566,251.590622 311.540222,251.579559 311.921204,251.931290 
	C311.834351,252.038055 311.655212,252.010010 311.215027,251.905823 
z"/>
<path fill="#DCC34C" opacity="1.000000" stroke="none" 
	d="
M416.000366,234.727264 
	C415.789032,234.794662 415.509430,234.592850 415.117096,234.153931 
	C415.313599,234.097229 415.622864,234.277634 416.000366,234.727264 
z"/>
<path fill="#DCC34C" opacity="1.000000" stroke="none" 
	d="
M327.119293,252.837204 
	C327.058258,252.545731 327.320435,252.342606 327.847473,252.089233 
	C327.853729,252.288925 327.630432,252.584442 327.119293,252.837204 
z"/>
<path fill="#DCC34C" opacity="1.000000" stroke="none" 
	d="
M282.275818,240.980927 
	C282.014923,240.859680 282.010895,240.668671 282.023804,240.191772 
	C282.204773,240.240997 282.368744,240.576080 282.275818,240.980927 
z"/>
<path fill="#DCC34C" opacity="1.000000" stroke="none" 
	d="
M419.996338,239.722809 
	C419.778778,239.801346 419.489044,239.615616 419.101379,239.184998 
	C419.310333,239.112915 419.617249,239.285736 419.996338,239.722809 
z"/>
<path fill="#DCC34C" opacity="1.000000" stroke="none" 
	d="
M418.985321,238.734863 
	C418.781281,238.796890 418.505005,238.593353 418.112427,238.156219 
	C418.301788,238.104843 418.607452,238.287064 418.985321,238.734863 
z"/>
<path fill="#DCC34C" opacity="1.000000" stroke="none" 
	d="
M208.893555,236.930099 
	C208.600891,236.947083 208.361847,236.627548 208.032410,236.019836 
	C208.277054,236.018967 208.612091,236.306274 208.893555,236.930099 
z"/>
<path fill="#DCC34C" opacity="1.000000" stroke="none" 
	d="
M416.891602,235.963669 
	C416.621765,235.997650 416.391113,235.723221 416.087280,235.189789 
	C416.319672,235.172287 416.625244,235.413773 416.891602,235.963669 
z"/>
<path fill="#000000" opacity="1.000000" stroke="none" 
	d="
M326.168152,244.896118 
	C325.183990,249.249344 321.745361,249.320129 318.471710,248.903824 
	C313.848480,248.315933 311.705841,244.537354 311.569946,240.675293 
	C311.476593,238.022064 312.107208,233.930420 317.282043,233.414307 
	C319.645905,232.975906 321.398956,232.918152 323.151978,232.860382 
	C323.151978,232.860382 323.444946,232.981140 323.732605,233.243927 
	C324.347778,233.702835 324.675293,233.898926 325.002838,234.095032 
	C325.002838,234.095032 325.009674,233.998795 325.035339,234.270966 
	C325.377197,234.734116 325.693420,234.925125 326.009644,235.116135 
	C326.009644,235.116135 326.009888,234.989563 326.038086,235.265488 
	C326.380676,235.756744 326.695099,235.972092 327.009491,236.187424 
	C327.009491,236.187424 327.030792,236.515854 327.014954,237.054016 
	C327.353058,238.495697 327.706970,239.399200 328.060883,240.302719 
	C327.994415,240.618317 327.971191,240.937073 327.726044,241.663055 
	C327.029938,243.010117 326.599030,243.953125 326.168152,244.896118 
z"/>
<path fill="#DCC34C" opacity="1.000000" stroke="none" 
	d="
M322.830444,232.669647 
	C321.398956,232.918152 319.645905,232.975906 317.463989,233.101089 
	C318.859711,232.938644 320.684326,232.708786 322.830444,232.669647 
z"/>
<path fill="#DCC34C" opacity="1.000000" stroke="none" 
	d="
M328.201294,240.050613 
	C327.706970,239.399200 327.353058,238.495697 327.079315,237.205475 
	C327.553558,237.812012 327.947632,238.805252 328.201294,240.050613 
z"/>
<path fill="#DCC34C" opacity="1.000000" stroke="none" 
	d="
M326.477051,244.780670 
	C326.599030,243.953125 327.029938,243.010117 327.747864,241.902313 
	C327.618591,242.713425 327.202271,243.689316 326.477051,244.780670 
z"/>
<path fill="#DCC34C" opacity="1.000000" stroke="none" 
	d="
M325.862488,234.895844 
	C325.693420,234.925125 325.377197,234.734116 324.987213,234.267365 
	C325.180725,234.219604 325.448029,234.447571 325.862488,234.895844 
z"/>
<path fill="#DCC34C" opacity="1.000000" stroke="none" 
	d="
M324.856812,233.848465 
	C324.675293,233.898926 324.347778,233.702835 323.890930,233.238922 
	C324.078033,233.181381 324.394440,233.391647 324.856812,233.848465 
z"/>
<path fill="#DCC34C" opacity="1.000000" stroke="none" 
	d="
M326.864990,235.949493 
	C326.695099,235.972092 326.380676,235.756744 325.974792,235.265045 
	C326.162384,235.229645 326.441467,235.470596 326.864990,235.949493 
z"/>
<path fill="#E7C11D" opacity="1.000000" stroke="none" 
	d="
M421.097412,243.194962 
	C421.294373,242.795288 421.534485,242.619324 421.889343,242.232269 
	C422.031708,242.058868 422.511902,242.025620 422.751617,242.004913 
	C422.383636,242.474899 421.775909,242.965622 421.097412,243.194962 
z"/>
<path fill="#EFC405" opacity="1.000000" stroke="none" 
	d="
M381.013519,241.005844 
	C384.772003,238.201157 396.434021,238.098083 399.919952,241.991089 
	C394.261047,241.991089 388.602112,241.991089 382.330872,241.802979 
	C381.509338,241.381989 381.274323,241.178986 381.013519,241.005844 
z"/>
<path fill="#EAC110" opacity="1.000000" stroke="none" 
	d="
M381.152283,241.194397 
	C381.274323,241.178986 381.509338,241.381989 381.863220,241.797974 
	C381.737793,241.819077 381.498840,241.619690 381.152283,241.194397 
z"/>
<path fill="#EFC405" opacity="1.000000" stroke="none" 
	d="
M402.029816,227.968414 
	C401.787109,228.536194 401.674927,229.315674 401.225128,229.698471 
	C398.532562,231.989990 386.211365,231.422699 382.151031,227.996262 
	C389.197418,227.996262 395.159790,227.996262 401.594299,227.974564 
	C402.066467,227.952866 402.004303,227.996811 402.029816,227.968414 
z"/>
</svg>